Coordinates
version=1
nRows=19
nColumns=63
inDegrees=yes

Units are S.I. units (second, meters, Newtons, ...)
If the header above contains a line with 'inDegrees', this indicates whether rotational values are in degrees (yes) or radians (no).

endheader
time	pelvis_tilt	pelvis_list	pelvis_rotation	pelvis_tx	pelvis_ty	pelvis_tz	hip_flexion_r	hip_adduction_r	hip_rotation_r	knee_angle_r	knee_angle_r_beta	ankle_angle_r	subtalar_angle_r	mtp_angle_r	hip_flexion_l	hip_adduction_l	hip_rotation_l	knee_angle_l	knee_angle_l_beta	ankle_angle_l	subtalar_angle_l	mtp_angle_l	L5_S1_Flex_Ext	L5_S1_Lat_Bending	L5_S1_axial_rotation	L4_L5_Flex_Ext	L4_L5_Lat_Bending	L4_L5_axial_rotation	L3_L4_Flex_Ext	L3_L4_Lat_Bending	L3_L4_axial_rotation	L2_L3_Flex_Ext	L2_L3_Lat_Bending	L2_L3_axial_rotation	L1_L2_Flex_Ext	L1_L2_Lat_Bending	L1_L2_axial_rotation	L1_T12_Flex_Ext	L1_T12_Lat_Bending	L1_T12_axial_rotation	Abs_r3	Abs_r2	Abs_r1	Abs_t1	Abs_t2	neck_flexion	neck_bending	neck_rotation	arm_flex_r	arm_add_r	arm_rot_r	elbow_flex_r	pro_sup_r	wrist_flex_r	wrist_dev_r	arm_flex_l	arm_add_l	arm_rot_l	elbow_flex_l	pro_sup_l	wrist_flex_l	wrist_dev_l
4.916667	-0.358161	-3.503771	84.419169	0.191995	0.877963	0.649225	3.405263	-1.693197	-8.016476	11.171679	0.194983	32.408936	17.338009	0.000000	2.219129	1.095389	8.853483	8.624342	0.150523	24.976075	-11.961743	0.000000	-0.382863	0.277600	0.372854	-0.711014	0.369209	0.396157	-0.629005	0.674958	0.396157	-0.437574	0.674958	0.326247	-0.355526	0.566083	0.302944	-0.218768	0.430003	0.279641	-2.734750	3.140272	2.073702	0.000000	0.000000	24.371623	0.568590	8.905500	7.289119	-12.193806	115.255734	8.823527	3.561853	-3.956714	-14.621715	9.913920	-8.544486	117.383300	11.402269	6.098284	-5.001166	-13.491943
4.933333	-0.411922	-3.497633	84.406467	0.192063	0.877973	0.649255	3.398847	-1.736412	-7.918390	11.120918	0.194097	32.417716	17.334157	0.000000	2.254225	1.147945	8.703629	8.763908	0.152959	24.852896	-11.992922	0.000000	-0.383297	0.269343	0.377269	-0.711822	0.358227	0.400849	-0.629719	0.654881	0.400849	-0.438071	0.654881	0.330111	-0.355930	0.549245	0.306531	-0.219016	0.417213	0.282952	-2.737855	3.046866	2.098259	0.000000	0.000000	24.313671	0.574809	8.805921	7.276784	-12.173106	115.060632	8.863681	3.577132	-3.972032	-14.572906	9.920829	-8.592088	117.135707	11.478002	6.152744	-5.033335	-13.577639
4.950000	-0.452804	-3.488382	84.401835	0.192124	0.878019	0.649263	3.387283	-1.765181	-7.818991	11.053203	0.192915	32.454764	17.347113	0.000000	2.281553	1.190248	8.600294	8.911210	0.155530	24.712115	-12.107341	0.000000	-0.384450	0.262182	0.379712	-0.713962	0.348702	0.403444	-0.631613	0.637469	0.403444	-0.439388	0.637469	0.332248	-0.357000	0.534641	0.308516	-0.219675	0.406120	0.284784	-2.746089	2.965852	2.111846	0.000000	0.000000	24.248195	0.602494	8.727987	7.267065	-12.151109	114.893074	8.899845	3.575210	-3.991538	-14.529373	9.916997	-8.631479	116.831654	11.543061	6.214851	-5.057500	-13.647955
4.966667	-0.481392	-3.471082	84.384850	0.192188	0.878103	0.649260	3.370831	-1.782481	-7.705416	10.980658	0.191649	32.509672	17.377649	0.000000	2.286066	1.223956	8.553555	9.039264	0.157765	24.561405	-12.312955	0.000000	-0.387612	0.256325	0.383986	-0.719835	0.340913	0.407985	-0.636808	0.623229	0.407985	-0.443002	0.623229	0.335988	-0.359937	0.522698	0.311989	-0.221482	0.397048	0.287989	-2.768676	2.899602	2.135614	0.000000	0.000000	24.187963	0.657765	8.688206	7.261929	-12.135922	114.733194	8.936389	3.582659	-4.015547	-14.492722	9.910251	-8.648951	116.592964	11.579327	6.222243	-5.082040	-13.677041
4.983333	-0.496428	-3.450874	84.372018	0.192249	0.878207	0.649250	3.352567	-1.786663	-7.595441	10.906515	0.190355	32.565751	17.421487	0.000000	2.281110	1.246834	8.579903	9.152681	0.159744	24.426469	-12.581611	0.000000	-0.391788	0.251952	0.386840	-0.727589	0.335096	0.411018	-0.643668	0.612596	0.411018	-0.447774	0.612596	0.338485	-0.363814	0.513780	0.314308	-0.223868	0.390273	0.290130	-2.798502	2.850130	2.151489	0.000000	0.000000	24.128936	0.743735	8.705681	7.256986	-12.122921	114.614074	8.961766	3.584589	-4.031075	-14.456168	9.893403	-8.661436	116.275825	11.609696	6.275281	-5.104785	-13.660579
5.000000	-0.497563	-3.427950	84.361279	0.192307	0.878324	0.649238	3.332975	-1.776554	-7.474883	10.833494	0.189080	32.611590	17.459821	0.000000	2.263503	1.258321	8.679199	9.238270	0.161238	24.312181	-12.904638	0.000000	-0.396892	0.249307	0.388324	-0.737068	0.331579	0.412594	-0.652053	0.606166	0.412594	-0.453608	0.606166	0.339783	-0.368554	0.508388	0.315513	-0.226784	0.386177	0.291243	-2.834958	2.820214	2.159742	0.000000	0.000000	24.073071	0.857660	8.785236	7.250139	-12.118680	114.494453	8.988217	3.590411	-4.042680	-14.413057	9.874316	-8.648394	116.135853	11.587160	6.222721	-5.099807	-13.601746
5.016667	-0.481699	-3.404573	84.365471	0.192362	0.878445	0.649236	3.311225	-1.748645	-7.370525	10.759861	0.187795	32.637394	17.500488	0.000000	2.246374	1.248465	8.770598	9.311212	0.162511	24.273234	-13.132304	0.000000	-0.402270	0.248523	0.386217	-0.747055	0.330535	0.410356	-0.660889	0.604258	0.410356	-0.459754	0.604258	0.337940	-0.373548	0.506787	0.313801	-0.229857	0.384961	0.289663	-2.873373	2.811336	2.148023	0.000000	0.000000	24.024398	0.994653	8.904936	7.241909	-12.121576	114.385413	9.014979	3.601133	-4.047186	-14.344801	9.856394	-8.615702	116.188974	11.517103	6.091567	-5.078367	-13.505117
5.033333	-0.454580	-3.380973	84.366580	0.192431	0.878566	0.649224	3.289003	-1.708636	-7.257244	10.688074	0.186542	32.643099	17.534206	0.000000	2.215079	1.228373	8.929943	9.343460	0.163074	24.256231	-13.404348	0.000000	-0.407025	0.249018	0.382156	-0.755886	0.331194	0.406041	-0.668701	0.605463	0.406041	-0.465189	0.605463	0.334387	-0.377963	0.507798	0.310502	-0.232574	0.385729	0.286617	-2.907337	2.816945	2.125439	0.000000	0.000000	23.976029	1.148604	9.052814	7.234844	-12.125284	114.366859	9.027256	3.597192	-4.035835	-14.241925	9.832968	-8.579485	116.294804	11.436290	5.958245	-5.066978	-13.381983
5.050000	-0.413178	-3.358251	84.388086	0.192477	0.878682	0.649207	3.262380	-1.654611	-7.160413	10.615485	0.185275	32.629374	17.550027	0.000000	2.175623	1.197271	9.198943	9.339530	0.163006	24.237947	-13.755556	0.000000	-0.410752	0.251220	0.373904	-0.762807	0.334122	0.397273	-0.674824	0.610816	0.397273	-0.469448	0.610816	0.327166	-0.381424	0.512288	0.303797	-0.234703	0.389140	0.280428	-2.933958	2.841850	2.079540	0.000000	0.000000	23.927659	1.293468	9.186701	7.224891	-12.141031	114.302439	9.054991	3.622380	-4.021585	-14.123379	9.814241	-8.534447	116.540246	11.336160	5.788380	-5.066269	-13.259547
5.066667	-0.355457	-3.341788	84.431335	0.192500	0.878787	0.649181	3.233187	-1.584841	-7.088350	10.539951	0.183957	32.595185	17.556410	0.000000	2.138945	1.147275	9.494454	9.309060	0.162474	24.248957	-14.059826	0.000000	-0.412221	0.255507	0.361067	-0.765536	0.339825	0.383634	-0.677239	0.621240	0.383634	-0.471128	0.621240	0.315934	-0.382789	0.521030	0.293367	-0.235543	0.395781	0.270801	-2.944456	2.890349	2.008149	0.000000	0.000000	23.874773	1.414168	9.294943	7.212854	-12.161836	114.264070	9.080921	3.635984	-3.985693	-13.994149	9.798848	-8.482788	116.875488	11.225892	5.617947	-5.082689	-13.152844
5.083333	-0.287391	-3.332023	84.485941	0.192502	0.878879	0.649143	3.204359	-1.507277	-7.039083	10.468774	0.182715	32.541290	17.548066	0.000000	2.102649	1.086563	9.832752	9.244473	0.161346	24.261065	-14.358657	0.000000	-0.411154	0.261386	0.346840	-0.763554	0.347643	0.368517	-0.675485	0.635533	0.368517	-0.469908	0.635533	0.303485	-0.381798	0.533018	0.281807	-0.234933	0.404887	0.260130	-2.936832	2.956848	1.929020	0.000000	0.000000	23.811535	1.502326	9.364425	7.195481	-12.188961	114.214785	9.106913	3.671946	-3.948561	-13.878869	9.788304	-8.424161	117.310654	11.102358	5.458856	-5.127097	-13.079147
5.100000	-0.210814	-3.328799	84.547649	0.192482	0.878951	0.649097	3.175465	-1.424099	-7.001954	10.403876	0.181582	32.469522	17.519574	0.000000	2.069345	1.014849	10.175534	9.150000	0.159698	24.282251	-14.602308	0.000000	-0.407846	0.268760	0.332244	-0.757411	0.357451	0.353009	-0.670050	0.653463	0.353009	-0.466127	0.653463	0.290714	-0.378726	0.548055	0.269948	-0.233043	0.416309	0.249183	-2.913204	3.040265	1.847842	0.000000	0.000000	23.744435	1.546061	9.381585	7.178211	-12.221183	114.211918	9.126962	3.690165	-3.902413	-13.795974	9.782304	-8.359344	117.818684	10.969233	5.327340	-5.193276	-13.037714
5.116667	-0.131435	-3.331873	84.622393	0.192427	0.879000	0.649051	3.145834	-1.342565	-6.992322	10.347023	0.180590	32.384786	17.483895	0.000000	2.042662	0.937970	10.516203	9.029317	0.157591	24.317016	-14.769135	0.000000	-0.402659	0.277072	0.316753	-0.747779	0.368505	0.336550	-0.661529	0.673672	0.336550	-0.460199	0.673672	0.277159	-0.373909	0.565004	0.257362	-0.230080	0.429184	0.237565	-2.876155	3.134289	1.761685	0.000000	0.000000	23.671918	1.542726	9.345250	7.159667	-12.258005	114.202533	9.144959	3.715536	-3.857638	-13.757395	9.786795	-8.284768	118.465140	10.815156	5.167710	-5.257126	-13.031278
5.133333	-0.053542	-3.340052	84.714435	0.192336	0.879016	0.648996	3.111828	-1.265927	-7.003058	10.293267	0.179651	32.286062	17.442235	0.000000	2.024513	0.859490	10.846987	8.892146	0.155197	24.369177	-14.847323	0.000000	-0.395567	0.285768	0.299269	-0.734607	0.380072	0.317974	-0.649876	0.694817	0.317974	-0.452093	0.694817	0.261861	-0.367323	0.582739	0.243156	-0.226027	0.442655	0.224452	-2.825492	3.232669	1.664446	0.000000	0.000000	23.596321	1.505200	9.269174	7.141086	-12.296065	114.214427	9.157854	3.743030	-3.811634	-13.767141	9.797207	-8.209024	119.181232	10.657534	5.008908	-5.316294	-13.054403
5.150000	0.015149	-3.348533	84.806238	0.192241	0.878996	0.648949	3.074318	-1.199988	-6.999483	10.243454	0.178782	32.182448	17.385612	0.000000	2.010028	0.786342	11.140979	8.744295	0.152617	24.436450	-14.839986	0.000000	-0.387687	0.293570	0.283178	-0.719974	0.390447	0.300876	-0.636931	0.713785	0.300876	-0.443088	0.713785	0.247781	-0.360006	0.598647	0.230082	-0.221524	0.454739	0.212383	-2.769210	3.320917	1.574950	0.000000	0.000000	23.516641	1.431752	9.137675	7.122083	-12.326213	114.248658	9.157925	3.762409	-3.761461	-13.819725	9.809198	-8.162872	119.684422	10.566701	5.013727	-5.429330	-13.087906
5.166667	0.076867	-3.358941	84.900975	0.192150	0.878940	0.648914	3.036880	-1.140695	-6.982090	10.194787	0.177933	32.078862	17.319757	0.000000	2.004873	0.715666	11.386582	8.604456	0.150176	24.520976	-14.750501	0.000000	-0.379150	0.300475	0.266582	-0.704119	0.399632	0.283243	-0.622905	0.730576	0.283243	-0.433330	0.730576	0.233259	-0.352079	0.612729	0.216598	-0.216646	0.465436	0.199937	-2.708230	3.399036	1.482649	0.000000	0.000000	23.438196	1.339249	8.961057	7.108711	-12.353200	114.254868	9.170163	3.798063	-3.722528	-13.907848	9.828640	-8.120447	120.268353	10.476966	4.928075	-5.512382	-13.139529
5.183333	0.129438	-3.370536	84.999469	0.192067	0.878850	0.648882	2.997744	-1.088901	-6.953572	10.139739	0.176972	31.985878	17.251692	0.000000	2.006620	0.649825	11.583314	8.480051	0.148005	24.610069	-14.606650	0.000000	-0.370195	0.306167	0.248429	-0.687490	0.407202	0.263955	-0.608194	0.744414	0.263955	-0.423096	0.744414	0.217375	-0.343764	0.624335	0.201848	-0.211530	0.474252	0.186321	-2.644269	3.463421	1.381685	0.000000	0.000000	23.369744	1.218436	8.737360	7.101014	-12.369757	114.267644	9.183234	3.824745	-3.683018	-14.019521	9.841129	-8.097333	120.735734	10.416693	4.878607	-5.578844	-13.190862
5.200000	0.173356	-3.386246	85.099633	0.192009	0.878731	0.648849	2.962112	-1.043275	-6.926251	10.079690	0.175924	31.915144	17.195309	0.000000	2.018303	0.589156	11.738520	8.382076	0.146295	24.691411	-14.447074	0.000000	-0.360612	0.310628	0.227618	-0.669693	0.413136	0.241844	-0.592450	0.755261	0.241844	-0.412144	0.755261	0.199165	-0.334865	0.633433	0.184939	-0.206054	0.481163	0.170713	-2.575818	3.513888	1.265941	0.000000	0.000000	23.312602	1.092359	8.495461	7.101881	-12.374738	114.289536	9.197572	3.847716	-3.637030	-14.147228	9.841219	-8.100903	121.027448	10.404811	4.875248	-5.646574	-13.239614
5.216667	0.207528	-3.404654	85.188877	0.191985	0.878597	0.648801	2.930756	-1.004878	-6.888689	10.016133	0.174815	31.873211	17.147965	0.000000	2.032903	0.537324	11.862537	8.308852	0.145017	24.744166	-14.323165	0.000000	-0.350485	0.313778	0.206008	-0.650886	0.417324	0.218884	-0.575812	0.762919	0.218884	-0.400569	0.762919	0.180257	-0.325460	0.639855	0.167382	-0.200267	0.486042	0.154506	-2.503480	3.549516	1.145756	0.000000	0.000000	23.263392	0.964162	8.249979	7.110364	-12.370548	114.298932	9.220296	3.876696	-3.591971	-14.274545	9.819769	-8.132580	121.062875	10.445486	4.959718	-5.718215	-13.277790
